<?xml version="1.0" encoding="UTF-8"?>
<!DOCTYPE svg PUBLIC "-//W3C//DTD SVG 1.1//EN" "http://www.w3.org/Graphics/SVG/1.1/DTD/svg11.dtd">
<svg xmlns="http://www.w3.org/2000/svg" version="1.1" width="120px" height="120px" style="shape-rendering:geometricPrecision; text-rendering:geometricPrecision; image-rendering:optimizeQuality; fill-rule:evenodd; clip-rule:evenodd" xmlns:xlink="http://www.w3.org/1999/xlink">
<g><path style="opacity:0.999" fill="#c0c4cc" d="M 3.5,-0.5 C 40.8333,-0.5 78.1667,-0.5 115.5,-0.5C 117.167,0.5 118.5,1.83333 119.5,3.5C 119.5,40.8333 119.5,78.1667 119.5,115.5C 118.5,117.167 117.167,118.5 115.5,119.5C 78.1667,119.5 40.8333,119.5 3.5,119.5C 1.83333,118.5 0.5,117.167 -0.5,115.5C -0.5,78.1667 -0.5,40.8333 -0.5,3.5C 0.5,1.83333 1.83333,0.5 3.5,-0.5 Z"/></g>
<g><path style="opacity:1" fill="#fefefe" d="M 27.5,31.5 C 48.8333,31.5 70.1667,31.5 91.5,31.5C 91.5,50.1667 91.5,68.8333 91.5,87.5C 70.1667,87.5 48.8333,87.5 27.5,87.5C 27.5,68.8333 27.5,50.1667 27.5,31.5 Z"/></g>
<g><path style="opacity:1" fill="#c2c6ce" d="M 42.5,39.5 C 50.6577,38.8229 54.1577,42.4895 53,50.5C 50.7742,54.8608 47.2742,56.3608 42.5,55C 38.1392,52.7742 36.6392,49.2742 38,44.5C 39.025,42.313 40.525,40.6464 42.5,39.5 Z"/></g>
<g><path style="opacity:1" fill="#c0c4cc" d="M 68.5,54.5 C 69.4959,54.4142 70.3292,54.7476 71,55.5C 76.1263,64.2554 81.6263,72.7554 87.5,81C 68.8333,81.6667 50.1667,81.6667 31.5,81C 36.2868,75.2579 40.9535,69.4246 45.5,63.5C 48.0217,65.856 50.6884,68.0227 53.5,70C 54.5,70.6667 55.5,70.6667 56.5,70C 60.6297,64.8936 64.6297,59.7269 68.5,54.5 Z"/></g>
</svg>
